<svg xmlns="http://www.w3.org/2000/svg" viewBox="0 0 1280 1024"><defs><style>.cls-1{fill:#b3b3b3;}.cls-2{fill:gray;}.cls-3{fill:#fff;}</style></defs><g id="Layer_1" data-name="Layer 1"><path class="cls-1" d="M879.3,689.33V519.89L862,491.45V267.21L849.74,248.8V173.5l-82-82L441.43,225.38v50.76l-19.52,24V637.59l-20.13,33.47v18.27H571.4V561.73l-9.21-14L582,527.92V479.73s32.19-92.52,129.3-64.64L710.85,492l-18.41,27.89L693,640.38l-17.85,33.47v15.48Z"/><path class="cls-2" d="M711.52,304.53c-190.61-5.8-187.75,153.15-188.47,157.31h31.68s25.4-121.66,156.79-84.16Z"/><path class="cls-3" d="M136.64,887.87V718.77h46.5c40.63,0,55.9,17.15,55.9,46v20.9c0,17.38-6.81,30.3-23.49,36.87l38.75,65.29H217.2l-33.82-60.36H169.76v60.36ZM169.76,746v54.25h14.09c14.32,0,22.07-6.34,22.07-20V766.68c0-14.09-7.75-20.66-21.6-20.66Z"/><path class="cls-3" d="M311.6,863c10.8,0,17.14-4.7,17.14-15.27V845.6h31.94v8c0,23.25-18.32,36.64-49.08,36.64s-48.85-13.39-48.85-36.64V795.34c0-23.25,18.08-36.64,48.85-36.64s49.08,13.39,49.08,36.64v41.33h-66v11C294.69,858.28,300.32,863,311.6,863Zm-16.91-51.44h34.05V801.21c0-10.57-6.34-15.27-17.14-15.27-11.28,0-16.91,4.7-16.91,15.27Z"/><path class="cls-3" d="M383.45,888.81v-170h31.94V769c13.15-7.28,21.84-10.33,31.94-10.33,22.55,0,34.52,13.39,34.52,35.7v58.48c0,22.07-12.21,36.64-35.46,36.64a52,52,0,0,1-31-10.1v.23L413,888.81Zm31.94-93v57.78c7,4.46,13.62,6.81,20.67,6.81,9.63,0,14.09-4.93,14.09-16.67V803.56c0-11.28-4.46-15.74-12.92-15.74C431.83,787.82,426,790.17,415.39,795.8Z"/><path class="cls-3" d="M575.08,887.87l-1.88-8.45c-11.74,6.34-24.43,10.8-36.64,10.8-20.9,0-31-12.68-31-33.58V761.05H537.5v86.19c0,9.63,4.46,13.86,12.21,13.86,6.58,0,13.16-3.06,20-6.58V761.05h31.94V887.87Z"/><path class="cls-3" d="M627,745.55V711.73h34v33.82Zm.93,142.32V761.05h32V887.87Z"/><path class="cls-3" d="M717.38,718.77V845.13c0,11.27,3.29,16.67,10.8,16.67a36,36,0,0,0,8.93-1.17v26.54c-4.23,1.17-8.22,1.87-20.91,1.87-20.67,0-30.77-10.8-30.77-38.51V718.77Z"/><path class="cls-3" d="M815.78,887.87l-2.12-7.51a53.69,53.69,0,0,1-30.76,9.16c-21.85,0-34.76-14.57-34.76-36.17v-59c0-22.08,12.91-35.7,34.76-35.7A71.74,71.74,0,0,1,813.43,765V718.77h31.94v169.1ZM813.43,855V793.46c-7.28-4.23-12.69-5.64-20.2-5.64-8.22,0-13.15,4.93-13.15,15.74v40.16c0,10.8,4.46,16.67,13.15,16.67A42,42,0,0,0,813.43,855Z"/><path class="cls-3" d="M870.48,745.55V711.73h34.06v33.82Zm.94,142.32V761.05h31.94V887.87Z"/><path class="cls-3" d="M958.55,768.56c11.51-5.63,23-9.86,35-9.86,20.9,0,30.77,12.45,30.77,33.11v96.06H992.37V801.21c0-9.16-4.23-13.39-12-13.39-6.34,0-12.68,2.82-19,6.11v93.94H929.42V760.11H956.2Z"/><path class="cls-3" d="M1048.24,794.4c0-22.08,12.92-35.7,34.76-35.7a72.07,72.07,0,0,1,32.18,7l1.41-5.63h26.77V882.24c0,37.34-20.2,50.26-60.12,50.26a193.35,193.35,0,0,1-33.35-3.06V902.2c5.63,1.41,20.43,3,29.82,3,20.44,0,31.71-7.28,31.71-24.66v-1.17a52.85,52.85,0,0,1-28.42,7.75c-21.84,0-34.76-14.57-34.76-36.17Zm63.18,59.42V792.28a35.67,35.67,0,0,0-18.08-4.46c-8.22,0-13.16,4.93-13.16,15.74v37.81c0,10.8,4.47,16.67,13.16,16.67A40.81,40.81,0,0,0,1111.42,853.82Z"/></g></svg>